<svg id="phone" xmlns="http://www.w3.org/2000/svg" viewBox="0 0 57.562 57">
  
<defs>
    <style>
      #phone {
        fill: #fff;
        fill-rule: evenodd;
      }
    </style>
  </defs>
  <path id="phone" d="M745.69,462.684a1,1,0,0,0,1.993,0,12.285,12.285,0,0,0-12.3-12.245,0.993,0.993,0,1,0,0,1.985A10.294,10.294,0,0,1,745.69,462.684Zm10.721,2.6a0.994,0.994,0,0,0,1-.993,23.262,23.262,0,0,0-23.286-23.186,0.993,0.993,0,1,0,0,1.985,21.271,21.271,0,0,1,21.293,21.2A0.994,0.994,0,0,0,756.411,465.288Zm9.582,1.312a0.994,0.994,0,0,0,1-.992,33.824,33.824,0,0,0-33.857-33.714,0.993,0.993,0,1,0,0,1.985A31.832,31.832,0,0,1,765,465.608,0.994,0.994,0,0,0,765.993,466.6Zm-24.486,22.309a11.467,11.467,0,0,0,9.428-6.626l0.1-.236c0-.007.006-0.015,0.009-0.021,0.484-1.252.562-1.818-.541-2.8-0.724-.664-3.845-3.071-6.979-5.478l-0.646-.521a12.055,12.055,0,0,0-1.153-.888,1.941,1.941,0,0,0-1.5-.437,2.285,2.285,0,0,0-1.417,1.166c-2.159,3.341-3.225,3.547-3.5,3.521a1.4,1.4,0,0,1-.309-0.1c-1.331-.956-6.63-7.051-7.3-7.921-0.024-.03-0.05-0.059-0.076-0.087-0.776-.789-6.153-6.9-6.884-8.314a0.56,0.56,0,0,1,0-.481c0.358-.907,2.233-2.082,3.9-2.773a2.36,2.36,0,0,0,1.4-1.206,1.776,1.776,0,0,0-.249-1.611l-0.147-.263c-0.19-.343-0.49-0.884-0.864-1.5-1.987-3.463-3.974-6.912-4.553-7.745a1.8,1.8,0,0,0-1.347-.933,3.414,3.414,0,0,0-1.227.208l-0.248.064a9.314,9.314,0,0,0-4.38,2.451c-2.8,2.5-5.029,5.846-2.425,13.348,2.425,6.95,9.7,15.271,9.765,15.351s7.331,8.389,13.925,11.744a16.9,16.9,0,0,0,6.5,2.064C741.023,488.9,741.267,488.909,741.507,488.909Zm-19.65-15.136c-0.071-.08-7.09-8.118-9.386-14.7-2.107-6.07-.845-8.793,1.862-11.211a7.431,7.431,0,0,1,3.561-2.017l0.3-.079c0.14-.046.256-0.076,0.344-0.1,0.014,0.019.031,0.04,0.047,0.064,0.565,0.812,3.092,5.216,4.461,7.6,0.369,0.611.657,1.129,0.839,1.458l0.124,0.221c-0.041.02-.09,0.042-0.146,0.066-0.971.4-4.2,1.871-4.961,3.811a2.6,2.6,0,0,0-.054,1.945,0.985,0.985,0,0,0,.047.117c0.8,1.694,6.534,8.12,7.251,8.874,0.652,0.811,6.259,7.357,7.828,8.372a1.112,1.112,0,0,0,.164.086,3.277,3.277,0,0,0,1.026.283c2.063,0.141,3.936-2.291,5.319-4.432,0.042-.065.079-0.12,0.11-0.164L740.63,474c0.161,0.1.578,0.435,0.981,0.764l0.693,0.559c2.14,1.644,6.125,4.7,6.856,5.375,0.076,0.069.139,0.126,0.186,0.171-0.043.13-.112,0.31-0.161,0.437l-0.094.225a9.317,9.317,0,0,1-8.179,5.376,14.984,14.984,0,0,1-5.722-1.848C728.95,481.88,721.93,473.857,721.857,473.773Z" transform="translate(-709.438 -431.906)"/>
</svg>
