<?xml version="1.0" encoding="utf-8"?>
<!-- Generator: Adobe Illustrator 22.0.0, SVG Export Plug-In . SVG Version: 6.00 Build 0)  -->
<svg version="1.1" id="Layer_1" xmlns="http://www.w3.org/2000/svg" xmlns:xlink="http://www.w3.org/1999/xlink" x="0px" y="0px"
	 viewBox="0 0 300 249.9" enable-background="new 0 0 300 249.9" xml:space="preserve">
<g id="Shape_4">
	<g>
		<path fill-rule="evenodd" clip-rule="evenodd" fill="#FFFFFF" d="M299.6,74.1l-8.1-23.8c-1-3-3.7-5.1-6.9-5.3l-22-1.5l1.2-21.9
			c0.2-3.1-1.5-6-4.3-7.4L237,3c-1.1-0.5-2.3-0.8-3.5-0.8c-1.8,0-3.7,0.7-5.1,1.9l-16.6,14.4L197,2.1c-1.5-1.7-3.6-2.6-5.8-2.6
			c-0.8,0-1.7,0.1-2.5,0.4l-23.9,8c-3,1-5.1,3.7-5.3,6.8L158,36.6l-22.1-1.2c-0.2,0-0.3,0-0.5,0c-2.9,0-5.6,1.7-7,4.3l-11.2,22.5
			c-1.4,2.8-1,6.2,1.1,8.6l14.5,16.6L116.4,102c-2.3,2.1-3.2,5.3-2.2,8.3l8.1,23.8c1,3,3.7,5.1,6.9,5.3l21.9,1.5l-1.2,22
			c-0.2,3.1,1.5,6,4.3,7.4l22.6,11.2c1.1,0.5,2.3,0.8,3.5,0.8c1.8,0,3.7-0.7,5.1-1.9l16.6-14.4l14.7,16.4c1.5,1.7,3.6,2.6,5.8,2.6
			c0.8,0,1.7-0.1,2.5-0.4l23.9-8c3-1,5.1-3.7,5.3-6.8l1.5-21.9l22.1,1.2c0.1,0,0.2,0,0.4,0c2.9,0,5.7-1.7,7-4.3l11.2-22.6
			c1.4-2.8,1-6.1-1.1-8.5l-14.5-16.6l16.5-14.7C299.7,80.3,300.6,77.1,299.6,74.1z M272.9,88.2c-4.9,4.3-5.4,11.8-1.1,16.7
			l12.6,14.4l-8.7,17.6l-19.3-1.1c-0.2,0-0.4,0-0.7,0c-6.3,0-11.5,4.8-11.9,11.1l-1.3,19.1l-18.7,6.3L210.9,158
			c-2.4-2.6-5.6-4-8.9-4c-2.8,0-5.6,1-7.9,2.9l-14.5,12.6l-17.7-8.7l1.1-19.3c0.4-6.5-4.6-12.1-11.1-12.6l-19.2-1.3l-6.3-18.6
			l14.4-12.9c4.9-4.3,5.3-11.8,1.1-16.7L129.2,65l8.8-17.6l19.3,1.1c0.2,0,0.5,0,0.7,0c6.2,0,11.5-4.8,11.9-11.1l1.3-19.1l18.7-6.3
			l12.9,14.4c2.4,2.6,5.6,4,8.9,4c2.8,0,5.6-1,7.9-2.9l14.5-12.6l17.7,8.7l-1.1,19.2c-0.4,6.5,4.6,12.1,11.1,12.6l19.2,1.3l6.3,18.6
			L272.9,88.2z M206.9,53.1c-21.6,0-39.2,17.5-39.2,39.1c0,21.5,17.6,39.1,39.2,39.1c21.6,0,39.2-17.5,39.2-39.1
			C246.1,70.7,228.5,53.1,206.9,53.1z M206.9,119.4c-15,0-27.3-12.2-27.3-27.1s12.2-27.1,27.3-27.1s27.3,12.2,27.3,27.1
			S221.9,119.4,206.9,119.4z M67.7,156c-15,0-27.3,12.2-27.3,27.1c0,15,12.2,27.1,27.3,27.1c15,0,27.3-12.2,27.3-27.1
			C95,168.1,82.7,156,67.7,156z M67.7,198.3c-8.4,0-15.3-6.8-15.3-15.2c0-8.4,6.9-15.2,15.3-15.2c8.4,0,15.3,6.8,15.3,15.2
			C83,191.5,76.1,198.3,67.7,198.3z M129.2,152.6c-0.7-2.2-2.7-3.7-5-3.8l-16-1.1l0.9-16c0.1-2.3-1.1-4.4-3.1-5.4l-16.4-8.1
			c-0.8-0.4-1.7-0.6-2.5-0.6c-1.3,0-2.7,0.5-3.7,1.4l-12.1,10.5l-10.7-11.9c-1.1-1.2-2.6-1.9-4.2-1.9c-0.6,0-1.2,0.1-1.8,0.3
			l-17.4,5.8c-2.2,0.7-3.7,2.7-3.8,5l-1.1,15.9l-16-0.9c-0.1,0-0.2,0-0.3,0c-2.1,0-4.1,1.2-5.1,3.1l-8.1,16.4c-1,2-0.7,4.5,0.8,6.2
			l10.5,12l-12,10.7c-1.7,1.5-2.3,3.9-1.6,6l5.9,17.3c0.7,2.2,2.7,3.7,5,3.8l15.9,1.1l-0.9,16c-0.1,2.2,1.1,4.3,3.1,5.3l16.4,8.1
			c0.8,0.4,1.7,0.6,2.5,0.6c1.3,0,2.7-0.5,3.7-1.4l12.1-10.5l10.7,11.9c1.1,1.2,2.6,1.9,4.2,1.9c0.6,0,1.2-0.1,1.8-0.3l17.4-5.9
			c2.2-0.7,3.7-2.7,3.8-5l1.1-15.9l16.1,0.9c0.1,0,0.2,0,0.3,0c2.1,0,4.1-1.2,5.1-3.1l8.2-16.4c1-2,0.7-4.5-0.8-6.2l-10.5-12
			l12-10.7c1.7-1.5,2.3-3.9,1.6-6L129.2,152.6z M113.5,177.8c-4.9,4.3-5.4,11.8-1.1,16.7l7.7,8.9l-4.4,8.9l-11.9-0.6
			c-0.2,0-0.4,0-0.7,0c-6.3,0-11.5,4.8-11.9,11.1l-0.8,11.7l-9.5,3.2l-7.9-8.8c-2.4-2.6-5.6-4-8.9-4c-2.8,0-5.6,1-7.9,2.9l-8.9,7.7
			l-9-4.4l0.7-11.9c0.4-6.5-4.6-12.1-11.1-12.6l-11.8-0.8l-3.2-9.4l8.9-7.9c4.9-4.3,5.3-11.8,1.1-16.7l-7.8-8.9l4.4-8.9l11.9,0.7
			c0.2,0,0.5,0,0.7,0c6.2,0,11.5-4.8,11.9-11.1l0.8-11.7l9.5-3.2l7.9,8.8c2.4,2.6,5.6,4,8.9,4c2.8,0,5.6-1,7.9-2.9l8.9-7.7l8.9,4.4
			L96.3,147c-0.4,6.5,4.6,12.1,11.1,12.6l11.8,0.8l3.2,9.4L113.5,177.8z"/>
	</g>
</g>
</svg>
