<svg xmlns="http://www.w3.org/2000/svg" xmlns:xlink="http://www.w3.org/1999/xlink" style="display:none"><symbol  viewBox='0 0 59 50' id='svgClouds'>
    <path class="cls-1" d="M5.72 44.248a1.009 1.009 0 0 1-.83-.435.993.993 0 0 1-.07-1 12.059 12.059 0 0 0 1.39-6.779A6.36 6.36 0 0 1 0 29.68V6.355A6.361 6.361 0 0 1 6.35-.001h33.3A6.361 6.361 0 0 1 46 6.355v23.326a6.361 6.361 0 0 1-6.35 6.356H16.7c-2.47 5.385-8.31 8-10.9 8.208a1.07 1.07 0 0 1-.08.003zM6.35 2A4.356 4.356 0 0 0 2 6.354V29.68a4.356 4.356 0 0 0 4.35 4.354h.08a1.871 1.871 0 0 1 1.74 1.571 12.5 12.5 0 0 1-.76 6.192 13.26 13.26 0 0 0 7.5-6.665 1.869 1.869 0 0 1 1.7-1.1h23.04A4.356 4.356 0 0 0 44 29.678V6.355a4.356 4.356 0 0 0-4.35-4.354H6.35zm-.03 34.036zM54 50h-.08a11.294 11.294 0 0 1-8.05-5.948H26.42A5.428 5.428 0 0 1 21 38.625v-.58h2v.58a3.423 3.423 0 0 0 3.42 3.425H46.2a1.631 1.631 0 0 1 1.39.958 9.169 9.169 0 0 0 4.74 4.473 8.9 8.9 0 0 1-.37-4.063 1.616 1.616 0 0 1 1.53-1.369A3.447 3.447 0 0 0 57 38.622V19.44a3.423 3.423 0 0 0-3.42-3.424H48v-2h5.58A5.428 5.428 0 0 1 59 19.442v19.179a5.428 5.428 0 0 1-5.11 5.418 8.7 8.7 0 0 0 1.01 4.525A1 1 0 0 1 54 50zm-.07-6.27z"></path>
  </symbol><symbol  viewBox='0 0 57.562 57' id='svgPhone'>
    <path d="M36.252 30.778a1 1 0 0 0 1.993 0 12.285 12.285 0 0 0-12.3-12.245.993.993 0 1 0 0 1.985 10.294 10.294 0 0 1 10.307 10.26zm10.721 2.6a.994.994 0 0 0 1-.993A23.262 23.262 0 0 0 24.687 9.199a.993.993 0 1 0 0 1.985 21.271 21.271 0 0 1 21.293 21.2.994.994 0 0 0 .993.998zm9.582 1.312a.994.994 0 0 0 1-.992A33.824 33.824 0 0 0 23.698-.016a.993.993 0 1 0 0 1.985 31.832 31.832 0 0 1 31.864 31.733.994.994 0 0 0 .993.992zM32.069 56.999a11.467 11.467 0 0 0 9.428-6.626l.1-.236c0-.007.006-.015.009-.021.484-1.252.562-1.818-.541-2.8-.724-.664-3.845-3.071-6.979-5.478l-.646-.521a12.055 12.055 0 0 0-1.153-.888 1.941 1.941 0 0 0-1.5-.437 2.285 2.285 0 0 0-1.417 1.166c-2.159 3.341-3.225 3.547-3.5 3.521a1.4 1.4 0 0 1-.309-.1c-1.331-.956-6.63-7.051-7.3-7.921a1.577 1.577 0 0 0-.076-.087c-.776-.789-6.153-6.9-6.884-8.314a.56.56 0 0 1 0-.481c.358-.907 2.233-2.082 3.9-2.773a2.36 2.36 0 0 0 1.4-1.206 1.776 1.776 0 0 0-.249-1.611l-.147-.263a42.22 42.22 0 0 0-.864-1.5c-1.987-3.463-3.974-6.912-4.553-7.745a1.8 1.8 0 0 0-1.347-.933 3.414 3.414 0 0 0-1.227.208l-.248.064a9.314 9.314 0 0 0-4.38 2.451c-2.8 2.5-5.029 5.846-2.425 13.348 2.425 6.95 9.7 15.271 9.765 15.351s7.331 8.389 13.925 11.744a16.9 16.9 0 0 0 6.5 2.064c.234.019.478.028.718.028zm-19.65-15.136c-.071-.08-7.09-8.118-9.386-14.7-2.107-6.07-.845-8.793 1.862-11.211a7.431 7.431 0 0 1 3.561-2.017l.3-.079c.14-.046.256-.076.344-.1.014.019.031.04.047.064.565.812 3.092 5.216 4.461 7.6.369.611.657 1.129.839 1.458l.124.221a3.36 3.36 0 0 1-.146.066c-.971.4-4.2 1.871-4.961 3.811a2.6 2.6 0 0 0-.054 1.945.985.985 0 0 0 .047.117c.8 1.694 6.534 8.12 7.251 8.874.652.811 6.259 7.357 7.828 8.372a1.112 1.112 0 0 0 .164.086 3.277 3.277 0 0 0 1.026.283c2.063.141 3.936-2.291 5.319-4.432.042-.065.079-.12.11-.164l.037.037c.161.1.578.435.981.764l.693.559c2.14 1.644 6.125 4.7 6.856 5.375.076.069.139.126.186.171-.043.13-.112.31-.161.437l-.094.225a9.317 9.317 0 0 1-8.179 5.376 14.984 14.984 0 0 1-5.722-1.848c-6.24-3.179-13.26-11.202-13.333-11.286z"></path>
  </symbol><symbol  viewBox='0 0 43 32' id='svgPlay'>
    <path class="cls-1" d="M14 21.508a6.019 6.019 0 1 1 6-6.019 6.016 6.016 0 0 1-6 6.019zm0-10.031a4.012 4.012 0 1 0 4 4.012 4.01 4.01 0 0 0-4-4.012zm15 10.031a6.019 6.019 0 1 1 6-6.019 6.016 6.016 0 0 1-6 6.019zm0-10.031a4.012 4.012 0 1 0 4 4.012 4.01 4.01 0 0 0-4-4.012zm0 10.031H14.735a1.004 1.004 0 0 1 0-2.007H29a1.003 1.003 0 0 1 0 2.007zm-7.5 10.484c-5.62 0-11.24-.261-16.821-.781A5.145 5.145 0 0 1 0 26.06V5.921A5.145 5.145 0 0 1 4.679.77a181.766 181.766 0 0 1 33.642 0A5.145 5.145 0 0 1 43 5.921V26.06a5.145 5.145 0 0 1-4.679 5.151c-5.581.52-11.201.781-16.821.781zm16.728-1.78zM21.5 2c-5.559 0-11.116.258-16.636.773A3.147 3.147 0 0 0 2 5.921V26.06a3.147 3.147 0 0 0 2.864 3.152 179.343 179.343 0 0 0 33.272 0A3.147 3.147 0 0 0 41 26.06V5.921a3.147 3.147 0 0 0-2.864-3.152A179.175 179.175 0 0 0 21.5 2z"></path>
  </symbol><symbol  viewBox='0 0 300 249.9' id='svgSettings'>
    <path d="M299.6 74.1l-8.1-23.8c-1-3-3.7-5.1-6.9-5.3l-22-1.5 1.2-21.9c.2-3.1-1.5-6-4.3-7.4L237 3c-1.1-.5-2.3-.8-3.5-.8-1.8 0-3.7.7-5.1 1.9l-16.6 14.4L197 2.1c-1.5-1.7-3.6-2.6-5.8-2.6-.8 0-1.7.1-2.5.4l-23.9 8c-3 1-5.1 3.7-5.3 6.8L158 36.6l-22.1-1.2h-.5c-2.9 0-5.6 1.7-7 4.3l-11.2 22.5c-1.4 2.8-1 6.2 1.1 8.6l14.5 16.6-16.4 14.6c-2.3 2.1-3.2 5.3-2.2 8.3l8.1 23.8c1 3 3.7 5.1 6.9 5.3l21.9 1.5-1.2 22c-.2 3.1 1.5 6 4.3 7.4l22.6 11.2c1.1.5 2.3.8 3.5.8 1.8 0 3.7-.7 5.1-1.9L202 166l14.7 16.4c1.5 1.7 3.6 2.6 5.8 2.6.8 0 1.7-.1 2.5-.4l23.9-8c3-1 5.1-3.7 5.3-6.8l1.5-21.9 22.1 1.2h.4c2.9 0 5.7-1.7 7-4.3l11.2-22.6c1.4-2.8 1-6.1-1.1-8.5l-14.5-16.6 16.5-14.7c2.4-2.1 3.3-5.3 2.3-8.3zm-26.7 14.1c-4.9 4.3-5.4 11.8-1.1 16.7l12.6 14.4-8.7 17.6-19.3-1.1h-.7c-6.3 0-11.5 4.8-11.9 11.1l-1.3 19.1-18.7 6.3-12.9-14.3c-2.4-2.6-5.6-4-8.9-4-2.8 0-5.6 1-7.9 2.9l-14.5 12.6-17.7-8.7 1.1-19.3c.4-6.5-4.6-12.1-11.1-12.6l-19.2-1.3-6.3-18.6 14.4-12.9c4.9-4.3 5.3-11.8 1.1-16.7L129.2 65l8.8-17.6 19.3 1.1h.7c6.2 0 11.5-4.8 11.9-11.1l1.3-19.1 18.7-6.3 12.9 14.4c2.4 2.6 5.6 4 8.9 4 2.8 0 5.6-1 7.9-2.9l14.5-12.6 17.7 8.7-1.1 19.2c-.4 6.5 4.6 12.1 11.1 12.6l19.2 1.3 6.3 18.6-14.4 12.9zm-66-35.1c-21.6 0-39.2 17.5-39.2 39.1 0 21.5 17.6 39.1 39.2 39.1s39.2-17.5 39.2-39.1c0-21.5-17.6-39.1-39.2-39.1zm0 66.3c-15 0-27.3-12.2-27.3-27.1s12.2-27.1 27.3-27.1 27.3 12.2 27.3 27.1-12.3 27.1-27.3 27.1zM67.7 156c-15 0-27.3 12.2-27.3 27.1 0 15 12.2 27.1 27.3 27.1 15 0 27.3-12.2 27.3-27.1 0-15-12.3-27.1-27.3-27.1zm0 42.3c-8.4 0-15.3-6.8-15.3-15.2 0-8.4 6.9-15.2 15.3-15.2S83 174.7 83 183.1c0 8.4-6.9 15.2-15.3 15.2zm61.5-45.7c-.7-2.2-2.7-3.7-5-3.8l-16-1.1.9-16c.1-2.3-1.1-4.4-3.1-5.4l-16.4-8.1c-.8-.4-1.7-.6-2.5-.6-1.3 0-2.7.5-3.7 1.4l-12.1 10.5-10.7-11.9c-1.1-1.2-2.6-1.9-4.2-1.9-.6 0-1.2.1-1.8.3l-17.4 5.8c-2.2.7-3.7 2.7-3.8 5l-1.1 15.9-16-.9H16c-2.1 0-4.1 1.2-5.1 3.1l-8.1 16.4c-1 2-.7 4.5.8 6.2l10.5 12-12 10.7c-1.7 1.5-2.3 3.9-1.6 6l5.9 17.3c.7 2.2 2.7 3.7 5 3.8l15.9 1.1-.9 16c-.1 2.2 1.1 4.3 3.1 5.3l16.4 8.1c.8.4 1.7.6 2.5.6 1.3 0 2.7-.5 3.7-1.4l12.1-10.5 10.7 11.9c1.1 1.2 2.6 1.9 4.2 1.9.6 0 1.2-.1 1.8-.3l17.4-5.9c2.2-.7 3.7-2.7 3.8-5l1.1-15.9 16.1.9h.3c2.1 0 4.1-1.2 5.1-3.1l8.2-16.4c1-2 .7-4.5-.8-6.2l-10.5-12 12-10.7c1.7-1.5 2.3-3.9 1.6-6l-6-17.1zm-15.7 25.2c-4.9 4.3-5.4 11.8-1.1 16.7l7.7 8.9-4.4 8.9-11.9-.6h-.7c-6.3 0-11.5 4.8-11.9 11.1l-.8 11.7-9.5 3.2-7.9-8.8c-2.4-2.6-5.6-4-8.9-4-2.8 0-5.6 1-7.9 2.9l-8.9 7.7-9-4.4.7-11.9c.4-6.5-4.6-12.1-11.1-12.6l-11.8-.8-3.2-9.4 8.9-7.9c4.9-4.3 5.3-11.8 1.1-16.7l-7.8-8.9 4.4-8.9 11.9.7h.7c6.2 0 11.5-4.8 11.9-11.1l.8-11.7 9.5-3.2 7.9 8.8c2.4 2.6 5.6 4 8.9 4 2.8 0 5.6-1 7.9-2.9l8.9-7.7 8.9 4.4-.5 11.7c-.4 6.5 4.6 12.1 11.1 12.6l11.8.8 3.2 9.4-8.9 8z"></path>
  </symbol><symbol  viewBox='0 0 34 36' id='svgTips'>
    <path data-name="Shape 6 copy" class="cls-1" d="M25.489 36H7.532C5.032 36 3 34.967 3 32.468V1h2v31.468C5 33.868 6.136 34 7.532 34h16.979L29 28.657V1h2v28.343zM28 2H1a1 1 0 0 1 0-2h27a1 1 0 0 1 0 2zm-4 7H10a1 1 0 0 1 0-2h14a1 1 0 0 1 0 2zm0 6H10a1 1 0 0 1 0-2h14a1 1 0 0 1 0 2zm0 6H10a1 1 0 0 1 0-2h14a1 1 0 0 1 0 2zm9-19h-6a1 1 0 0 1 0-2h6a1 1 0 0 1 0 2zm-9.522 33.978c.7-.726 1.542-1.264 2.243-1.978H24v-3.656c0-.742-.4-.344.344-.344H29l-2 1.255c.52-1.089 3.7-1.908 3.19-3.255h-5.846C22.5 28 22 28.5 22 30.344V36h1.463a.17.17 0 0 1 .015-.022z"></path>
  </symbol></svg>